<svg version="1.0" xmlns="http://www.w3.org/2000/svg" width="533.333" height="533.333" viewBox="0 0 400 400"><path d="M183 64.9c-2.5.5-7.6 1.3-11.5 1.9-6.3 1-11.1 2.5-25.3 7.7-21.8 7.9-49.8 31.5-62 52.1-7.6 13-9.5 25.2-8.9 56.8.4 21.6.7 25.2 3.1 35.1 1.4 6 2.6 11.8 2.6 12.8 0 2.4 7.3 24 11.3 33.7 6.6 15.8 22.6 46 24.3 46 .4 0 2.3-1.3 4.3-2.9 12.5-9.8 36.7-20 53.9-22.6 13-1.9 32.4-1.9 45.4 0 13.1 2 35 9.2 50.7 16.7 6.8 3.2 12.4 5.8 12.5 5.6 18.1-26.4 33.4-66.1 39.1-100.8 2-12.9 2-44.6 0-56.6-2.6-14.8-9.9-27.6-24.5-42.8-20.5-21.4-44.3-35.1-70.4-40.8-10-2.1-36.8-3.2-44.6-1.9z"/><path d="M164 297.7c-1.4.2-3.9 1.1-5.7 1.9-1.7.8-3.6 1.4-4.2 1.4-1.2 0-11.5 4.8-16 7.4-3.6 2.1-14.1 11.6-14.1 12.7 0 3.5 21.9 26.4 31 32.5 10 6.6 30.8 15 32.7 13 1.1-1.1-3.2-6-5.8-6.6-2.1-.5-2.4-1.1-2.4-5.5 0-4.9 0-5-3.5-5.5-4-.6-5.1-3.1-2.5-6 .9-1 1.5-2.9 1.3-4.2-.2-1.8-1.1-2.4-3.7-2.8-1.9-.3-3.9-1.3-4.5-2.2-.8-1.4-.3-2.4 3.2-5.6 4.2-3.9 5.2-6.8 3-9-.7-.7-2.1-1.2-3.3-1.2-3.1 0-6.5-2.8-6.5-5.4 0-2.3 2.8-5.6 4.6-5.6.5 0 2.5-1.3 4.4-2.9 2.9-2.5 3.3-3.2 2.4-4.8-1.1-1.8-5.4-2.5-10.4-1.6zM225 300.5c-1.8 2.1-.4 4.5 3.6 6.4 4 1.9 7.4 5.1 7.4 7.1 0 2.2-3.2 5-5.7 5-4.9 0-5.8 7.5-1.2 9.7 6.1 2.9 5.9 6.9-.4 7.5-2.7.2-3.3.8-3.5 3.1-.2 1.7.4 3.7 1.3 4.8 2.4 2.5 1.2 4.7-2.7 5.1-3.3.3-3.3.4-3.3 5.3 0 4.4-.3 5-2.3 5.3-1.8.3-5.2 4.5-5.2 6.7 0 3.6 24-7.3 36.5-16.6 5.5-4 18.1-17.1 23.3-24l3.2-4.4-5-4.6c-11.6-10.6-41.9-21.3-46-16.4z"/></svg>